<?xml version="1.0" standalone="no"?>
<!DOCTYPE svg PUBLIC "-//W3C//DTD SVG 20010904//EN"
 "http://www.w3.org/TR/2001/REC-SVG-20010904/DTD/svg10.dtd">
<svg version="1.0" xmlns="http://www.w3.org/2000/svg"
 width="50.000000pt" height="50.000000pt" viewBox="0 0 50.000000 50.000000"
 preserveAspectRatio="xMidYMid meet">

<g transform="translate(0.000000,50.000000) scale(0.100000,-0.100000)"
fill="#000000" stroke="none">
<path d="M70 250 l0 -230 180 0 180 0 0 168 0 168 -63 62 -63 62 -117 0 -117
0 0 -230z m220 150 l0 -60 60 0 60 0 0 -150 0 -150 -160 0 -160 0 0 210 0 210
100 0 100 0 0 -60z m65 0 l39 -40 -42 0 -42 0 0 40 c0 22 1 40 3 40 2 0 21
-18 42 -40z"/>
<path d="M140 390 c0 -6 28 -10 65 -10 37 0 65 4 65 10 0 6 -28 10 -65 10 -37
0 -65 -4 -65 -10z"/>
<path d="M140 350 c0 -6 28 -10 65 -10 37 0 65 4 65 10 0 6 -28 10 -65 10 -37
0 -65 -4 -65 -10z"/>
<path d="M140 310 c0 -6 45 -10 115 -10 70 0 115 4 115 10 0 6 -45 10 -115 10
-70 0 -115 -4 -115 -10z"/>
<path d="M140 270 c0 -6 45 -10 115 -10 70 0 115 4 115 10 0 6 -45 10 -115 10
-70 0 -115 -4 -115 -10z"/>
<path d="M140 230 c0 -6 45 -10 115 -10 70 0 115 4 115 10 0 6 -45 10 -115 10
-70 0 -115 -4 -115 -10z"/>
<path d="M176 181 c-3 -5 -5 -29 -5 -54 2 -41 4 -43 28 -39 14 3 34 11 45 18
10 7 23 11 30 8 6 -2 22 5 35 15 l24 18 -41 0 c-25 0 -43 -5 -46 -13 -10 -26
-24 -14 -22 19 1 26 -3 33 -21 35 -11 2 -24 -1 -27 -7z m34 -25 c0 -8 -4 -18
-10 -21 -5 -3 -10 3 -10 14 0 12 5 21 10 21 6 0 10 -6 10 -14z"/>
</g>
</svg>
