<?xml version="1.0" standalone="no"?>
<!DOCTYPE svg PUBLIC "-//W3C//DTD SVG 20010904//EN"
 "http://www.w3.org/TR/2001/REC-SVG-20010904/DTD/svg10.dtd">
<svg version="1.0" xmlns="http://www.w3.org/2000/svg"
 width="50.000000pt" height="50.000000pt" viewBox="0 0 50.000000 50.000000"
 preserveAspectRatio="xMidYMid meet">

<g transform="translate(0.000000,50.000000) scale(0.100000,-0.100000)"
fill="#000000" stroke="none">
<path d="M10 373 c0 -11 92 -23 171 -23 26 0 51 -5 55 -11 3 -6 -10 -28 -30
-48 -35 -36 -36 -38 -18 -54 26 -24 56 -21 90 8 l29 24 48 -49 c47 -48 55 -80
20 -80 -8 0 -15 -7 -15 -16 0 -9 -9 -18 -20 -21 -11 -3 -20 -11 -20 -18 0 -11
-41 -45 -55 -45 -3 0 -5 7 -5 16 0 17 -6 25 -78 96 -49 50 -82 63 -143 55 -28
-3 -26 -4 14 -5 45 -2 47 -3 41 -27 -5 -22 3 -35 59 -89 94 -89 106 -88 216
24 47 48 95 90 106 93 15 4 14 5 -7 6 -16 0 -28 -4 -28 -9 0 -28 -31 -18 -68
22 -30 32 -38 46 -30 55 21 26 -29 13 -67 -17 -42 -33 -57 -37 -74 -16 -10 11
-2 23 36 60 41 39 54 46 89 46 74 0 164 13 164 23 0 5 -18 7 -45 3 -155 -24
-235 -24 -389 -1 -28 5 -46 3 -46 -2z m140 -209 c0 -8 6 -14 14 -14 8 0 18 -9
21 -20 3 -11 13 -20 21 -20 8 0 14 -7 14 -15 0 -7 8 -18 18 -24 13 -7 14 -13
6 -21 -14 -14 -64 14 -64 36 0 8 -7 14 -16 14 -9 0 -18 9 -21 20 -3 11 -12 20
-19 20 -20 0 -30 30 -14 40 17 11 40 1 40 -16z"/>
</g>
</svg>
