<?xml version="1.0" standalone="no"?>
<!DOCTYPE svg PUBLIC "-//W3C//DTD SVG 20010904//EN"
 "http://www.w3.org/TR/2001/REC-SVG-20010904/DTD/svg10.dtd">
<svg version="1.0" xmlns="http://www.w3.org/2000/svg"
 width="50.000000pt" height="50.000000pt" viewBox="0 0 50.000000 50.000000"
 preserveAspectRatio="xMidYMid meet">

<g transform="translate(0.000000,50.000000) scale(0.100000,-0.100000)"
fill="#000000" stroke="none">
<path d="M40 423 c0 -22 -6 -32 -20 -36 -20 -5 -20 -12 -18 -159 l3 -153 90
-9 c114 -10 196 -10 310 0 l90 9 3 153 c2 147 2 154 -18 159 -14 4 -20 14 -20
36 l0 30 -87 -9 c-49 -4 -104 -8 -123 -8 -19 0 -74 4 -122 8 l-88 9 0 -30z
m183 -9 c15 -5 17 -21 17 -155 0 -139 -1 -150 -17 -145 -10 3 -51 8 -90 12
l-73 7 0 150 0 150 73 -7 c39 -4 80 -9 90 -12z m217 -133 l0 -148 -72 -7 c-40
-4 -81 -9 -90 -12 -17 -5 -18 7 -18 145 0 148 0 151 23 156 31 7 76 12 120 14
l37 1 0 -149z m-400 -39 l0 -128 105 -11 c77 -8 133 -8 210 0 l105 11 0 128
c0 79 4 128 10 128 6 0 10 -53 10 -139 l0 -138 -97 -8 c-122 -11 -144 -11
-265 0 l-98 8 0 138 c0 86 4 139 10 139 6 0 10 -49 10 -128z"/>
<path d="M323 353 c-35 -40 -29 -59 25 -87 21 -11 32 -23 30 -34 -4 -22 -46
-28 -54 -8 -6 17 -24 22 -24 7 0 -4 11 -20 25 -35 l24 -26 27 25 c35 32 27 65
-21 88 -25 12 -35 23 -33 35 4 22 46 28 54 8 6 -17 24 -22 24 -7 0 8 -46 62
-52 60 -2 0 -13 -12 -25 -26z"/>
</g>
</svg>
