<?xml version="1.0" standalone="no"?>
<!DOCTYPE svg PUBLIC "-//W3C//DTD SVG 20010904//EN"
 "http://www.w3.org/TR/2001/REC-SVG-20010904/DTD/svg10.dtd">
<svg version="1.0" xmlns="http://www.w3.org/2000/svg"
 width="50.000000pt" height="50.000000pt" viewBox="0 0 50.000000 50.000000"
 preserveAspectRatio="xMidYMid meet">

<g transform="translate(0.000000,50.000000) scale(0.100000,-0.100000)"
fill="#000000" stroke="none">
<path d="M225 400 c-41 -42 -46 -51 -35 -65 7 -8 15 -13 18 -10 3 3 16 -4 28
-16 l22 -21 -104 -96 c-106 -98 -126 -133 -79 -140 14 -2 47 27 117 102 l96
104 21 -22 c12 -12 19 -25 16 -28 -3 -3 2 -11 10 -18 14 -11 23 -6 65 35 56
55 61 72 26 81 -22 5 -125 101 -126 117 0 4 0 12 0 17 0 22 -28 7 -75 -40z
m29 -21 c-21 -21 -42 -39 -46 -39 -20 0 -4 31 34 66 54 49 64 27 12 -27z m55
8 c6 -8 9 -17 6 -20 -3 -4 -2 -5 2 -2 10 8 53 -37 46 -48 -3 -6 -1 -7 4 -4 6
4 16 0 23 -8 11 -13 8 -21 -18 -47 -26 -25 -35 -28 -47 -18 -8 7 -12 17 -8 24
3 6 2 8 -2 3 -11 -10 -56 33 -48 46 3 6 1 7 -4 4 -6 -4 -16 0 -23 8 -11 13 -8
21 15 45 32 34 38 36 54 17z m131 -102 c0 -12 -74 -85 -86 -85 -22 0 -17 11
23 52 32 33 63 49 63 33z m-257 -121 c-54 -57 -101 -104 -105 -104 -4 0 -10 5
-14 11 -7 12 196 210 209 202 4 -2 -37 -51 -90 -109z"/>
</g>
</svg>
