<?xml version="1.0" standalone="no"?>
<!DOCTYPE svg PUBLIC "-//W3C//DTD SVG 20010904//EN"
 "http://www.w3.org/TR/2001/REC-SVG-20010904/DTD/svg10.dtd">
<svg version="1.0" xmlns="http://www.w3.org/2000/svg"
 width="50.000000pt" height="50.000000pt" viewBox="0 0 50.000000 50.000000"
 preserveAspectRatio="xMidYMid meet">

<g transform="translate(0.000000,50.000000) scale(0.100000,-0.100000)"
fill="#000000" stroke="none">
<path d="M90 250 l0 -200 160 0 160 0 0 149 0 148 -51 52 -52 51 -108 0 -109
0 0 -200z m220 135 l0 -45 40 0 40 0 0 -135 0 -135 -140 0 -140 0 0 180 0 180
100 0 100 0 0 -45z m45 5 l29 -30 -32 0 c-29 0 -32 3 -32 30 0 17 1 30 3 30 2
0 16 -13 32 -30z"/>
<path d="M312 232 l-32 -37 -24 27 -25 27 -36 -36 c-42 -42 -38 -59 5 -18 l30
29 25 -24 25 -23 44 39 c24 21 45 42 45 47 2 18 -27 2 -57 -31z"/>
</g>
</svg>
